PathFileType	4	(X/Y/Z)	C:\Users\WrightLab\Desktop\Jo\P5V137.trc
DataRate	CameraRate	NumFrames	NumMarkers	Units	OrigDataRate	OrigDataStartFrame	OrigNumFrames
100.00	100.00	       10	19	mm	100.00	134	       534
Frame#	Time	Headset_Front			Headset_Back			Headset_Left			Headset_Right			Left_Shoulder			Right_Shoulder			Sternum			C7			Left Elbow			Right Elbow			Left Wrist			Right Wrist			Left ASIS			Right ASIS			S2			Left Knee			Right Knee			Left Ankle			Right Ankle			
		X1	Y1	Z1	X2	Y2	Z2	X3	Y3	Z3	X4	Y4	Z4	X5	Y5	Z5	X6	Y6	Z6	X7	Y7	Z7	X8	Y8	Z8	X9	Y9	Z9	X10	Y10	Z10	X11	Y11	Z11	X12	Y12	Z12	X13	Y13	Z13	X14	Y14	Z14	X15	Y15	Z15	X16	Y16	Z16	X17	Y17	Z17	X18	Y18	Z18	X19	Y19	Z19	

134	1.330	251.58090	1759.34045	-629.67133	595.22070	1249.98486	-691.23267							86.17801	1437.16528	-575.11597				309.99854	1325.81042	-508.36652				16.76948	1167.22144	-656.07709				95.99884	1069.22375	-455.53970	548.71802	1222.07727	-478.88287	178.53122	940.63434	-500.09595	476.39185	938.33722	-540.71112	321.78085	981.50879	-805.39813	220.72568	474.68875	-563.37170	560.10034	529.96863	-567.26953	309.06931	87.28561	-738.32336	453.45074	190.35878	-822.83655	
135	1.340	253.59027	1759.39856	-621.06421	597.59076	1249.54041	-680.68939							87.10741	1437.54065	-568.48041	488.17496	1190.45142	-337.04684	308.89212	1323.94824	-500.21738				18.25547	1167.48755	-648.23871				96.96587	1069.86023	-447.94751	550.86359	1220.96765	-468.17239	179.17497	939.95953	-494.69827	476.28290	937.90002	-529.19257	328.65479	980.58356	-795.76654	218.49947	473.01801	-564.76599	562.23334	531.72675	-550.08551	309.54755	88.27982	-737.44952	471.91132	182.99785	-794.17822	
136	1.350	255.64381	1759.27527	-611.50085	599.38696	1249.32983	-671.02832							87.86700	1437.72400	-561.19019				309.92163	1324.91870	-490.97931				20.03557	1167.69971	-641.46576				98.06853	1070.19751	-440.18347	553.27264	1221.10510	-458.42224	179.03064	939.09326	-489.94385	475.07608	936.58368	-517.72534	335.67270	979.86267	-787.34149	217.67410	471.84525	-563.41547	563.67670	533.40729	-533.67352	309.84821	88.22145	-736.70642	489.76077	174.63388	-764.94092	
137	1.360	257.49020	1759.42834	-602.20673	601.45831	1249.01196	-660.22614							90.21614	1437.74072	-553.42670				308.07788	1322.75439	-484.05316				21.58664	1168.33154	-634.05927				98.51592	1070.72864	-432.07635	554.73669	1220.35339	-448.11975	179.26801	938.74207	-485.29346	475.45047	936.74512	-506.92801	342.44373	979.34857	-780.21118	216.08620	470.68082	-562.03021	564.71356	534.29602	-516.58246	309.92010	88.46402	-736.81476	508.23978	167.63805	-735.68610	
138	1.370	259.38803	1759.42566	-591.92108	602.25043	1247.53455	-648.36279							91.20353	1437.35693	-546.04547				310.33911	1323.66467	-471.89368				23.74872	1167.52393	-626.33185				100.24468	1070.33923	-424.29199	556.68652	1219.79395	-438.03357	180.62170	938.08453	-479.72427	475.70325	936.31580	-496.59167	349.58884	978.75854	-771.54919	214.90936	470.58054	-558.60229	565.40143	535.16498	-500.06250	310.40280	89.23376	-735.72369	525.58826	160.72900	-704.17395	
139	1.380	261.24225	1759.14502	-582.17578	605.75647	1248.19458	-639.22229							92.99630	1437.61267	-539.05536	503.92737	1192.56604	-288.18890	309.69281	1322.32556	-462.40607				25.01809	1167.75281	-618.37610				99.98509	1070.81018	-416.36472	559.34882	1219.28064	-427.97211	181.20863	937.11505	-474.75949	474.44080	935.00757	-485.76654	356.64032	978.11737	-763.91400	213.09868	469.77267	-555.38818	565.81024	535.42822	-483.54916	311.10718	89.78230	-735.33044	542.51556	153.36652	-670.68201	
140	1.390	262.92648	1758.95691	-572.06653	607.19318	1247.27966	-628.53015							94.18459	1437.06421	-530.79364				310.53940	1321.77856	-454.10526				27.28571	1167.40515	-610.49982				101.91536	1070.88940	-408.25464	560.62091	1218.03308	-416.93246	181.07753	936.61072	-469.77786	475.73380	934.85034	-475.13007	363.84717	977.17139	-755.66797	212.74228	469.76181	-552.23077	566.02203	536.29083	-467.74747	311.21997	90.65693	-734.94464	558.33270	146.95961	-637.55157	
141	1.400	264.70737	1758.56592	-561.57697	609.22992	1246.88501	-618.46722							95.80100	1436.89795	-522.71368				310.44562	1321.00098	-445.15799				28.48040	1167.35974	-602.96094				101.64589	1071.26038	-400.15198	562.13812	1217.13965	-406.06137	180.97391	936.92255	-463.80484	475.41425	933.57343	-464.93628	369.85809	975.81927	-749.24963	211.07422	468.96115	-549.63898	566.29340	537.07178	-452.49954	311.35709	90.79946	-734.93372	573.14252	140.72472	-602.56152	
142	1.410	266.32675	1758.23853	-551.64581	610.45795	1246.83582	-607.52222							96.18045	1436.62512	-515.02277				311.97824	1320.64319	-433.73032				30.30737	1167.26685	-595.43646				102.19152	1070.79663	-392.11349	563.34131	1215.95862	-395.45950	181.66060	936.19629	-458.28986	475.14453	933.41345	-453.84402	377.00043	976.06689	-741.39771	211.09814	468.62726	-547.44336	567.50787	538.76508	-437.26035	311.76459	91.75922	-734.17505	586.08624	134.77786	-566.84973	
143	1.420	267.95001	1757.62646	-540.85950	612.51013	1245.92664	-596.19952							96.88419	1435.92358	-507.22461	498.94974	1183.51758	-255.28180	310.53659	1319.97876	-423.63846				31.39040	1166.95862	-587.85529				102.56266	1070.70886	-383.98734	565.84399	1214.50842	-384.91827	181.28850	935.66425	-452.48404	474.45868	932.06128	-442.76401	382.88211	974.39209	-731.34039	210.47775	468.38535	-544.06903	568.90594	540.14795	-423.07468	312.27649	92.71336	-733.38647	597.65967	129.29083	-530.42365	
